<?xml version="1.0" encoding="utf-8" standalone="no"?>
<!DOCTYPE svg PUBLIC "-//W3C//DTD SVG 1.1//EN"
  "http://www.w3.org/Graphics/SVG/1.1/DTD/svg11.dtd">
<svg xmlns:xlink="http://www.w3.org/1999/xlink" width="1000.300625pt" height="330.541644pt" viewBox="0 0 1000.300625 330.541644" xmlns="http://www.w3.org/2000/svg" version="1.1">
 <metadata>
  <rdf:RDF xmlns:dc="http://purl.org/dc/elements/1.1/" xmlns:cc="http://creativecommons.org/ns#" xmlns:rdf="http://www.w3.org/1999/02/22-rdf-syntax-ns#">
   <cc:Work>
    <dc:type rdf:resource="http://purl.org/dc/dcmitype/StillImage"/>
    <dc:date>2024-04-29T21:16:07.567677</dc:date>
    <dc:format>image/svg+xml</dc:format>
    <dc:creator>
     <cc:Agent>
      <dc:title>Matplotlib v3.8.1, https://matplotlib.org/</dc:title>
     </cc:Agent>
    </dc:creator>
   </cc:Work>
  </rdf:RDF>
 </metadata>
 <defs>
  <style type="text/css">*{stroke-linejoin: round; stroke-linecap: butt}</style>
 </defs>
 <g id="figure_1">
  <g id="axes_1">
   <g id="patch_1">
    <path d="M 45.690625 273.99006 
L 993.100625 273.99006 
L 993.100625 31.48286 
L 45.690625 31.48286 
z
" style="fill: #ffffff"/>
   </g>
   <g id="patch_2">
    <path d="M 45.690625 49.106153 
L 956.232806 49.106153 
L 956.232806 -850.429473 
L 45.690625 -850.429473 
z
" clip-path="url(#pdf7cef792d)" style="fill: #e6c3c3"/>
   </g>
   <g id="patch_3">
    <path d="M 45.690625 217.769083 
L 956.232806 217.769083 
L 956.232806 49.106153 
L 45.690625 49.106153 
z
" clip-path="url(#pdf7cef792d)" style="fill: #e6dcc3"/>
   </g>
   <g id="patch_4">
    <path d="M 45.690625 273.99006 
L 956.232806 273.99006 
L 956.232806 217.769083 
L 45.690625 217.769083 
z
" clip-path="url(#pdf7cef792d)" style="fill: #c3e6c3"/>
   </g>
   <g id="matplotlib.axis_1">
    <g id="xtick_1">
     <g id="text_1">
      <!-- 0 -->
      <g transform="translate(80.013444 287.06881) scale(0.08 -0.08)">
       <defs>
        <path id="DejaVuSans-30" d="M 2034 4250 
Q 1547 4250 1301 3770 
Q 1056 3291 1056 2328 
Q 1056 1369 1301 889 
Q 1547 409 2034 409 
Q 2525 409 2770 889 
Q 3016 1369 3016 2328 
Q 3016 3291 2770 3770 
Q 2525 4250 2034 4250 
z
M 2034 4750 
Q 2819 4750 3233 4129 
Q 3647 3509 3647 2328 
Q 3647 1150 3233 529 
Q 2819 -91 2034 -91 
Q 1250 -91 836 529 
Q 422 1150 422 2328 
Q 422 3509 836 4129 
Q 1250 4750 2034 4750 
z
" transform="scale(0.015625)"/>
       </defs>
       <use xlink:href="#DejaVuSans-30"/>
      </g>
     </g>
    </g>
    <g id="xtick_2">
     <g id="text_2">
      <!-- 20 -->
      <g transform="translate(201.393885 287.06881) scale(0.08 -0.08)">
       <defs>
        <path id="DejaVuSans-32" d="M 1228 531 
L 3431 531 
L 3431 0 
L 469 0 
L 469 531 
Q 828 903 1448 1529 
Q 2069 2156 2228 2338 
Q 2531 2678 2651 2914 
Q 2772 3150 2772 3378 
Q 2772 3750 2511 3984 
Q 2250 4219 1831 4219 
Q 1534 4219 1204 4116 
Q 875 4013 500 3803 
L 500 4441 
Q 881 4594 1212 4672 
Q 1544 4750 1819 4750 
Q 2544 4750 2975 4387 
Q 3406 4025 3406 3419 
Q 3406 3131 3298 2873 
Q 3191 2616 2906 2266 
Q 2828 2175 2409 1742 
Q 1991 1309 1228 531 
z
" transform="scale(0.015625)"/>
       </defs>
       <use xlink:href="#DejaVuSans-32"/>
       <use xlink:href="#DejaVuSans-30" x="63.623047"/>
      </g>
     </g>
    </g>
    <g id="xtick_3">
     <g id="text_3">
      <!-- 40 -->
      <g transform="translate(325.319327 287.06881) scale(0.08 -0.08)">
       <defs>
        <path id="DejaVuSans-34" d="M 2419 4116 
L 825 1625 
L 2419 1625 
L 2419 4116 
z
M 2253 4666 
L 3047 4666 
L 3047 1625 
L 3713 1625 
L 3713 1100 
L 3047 1100 
L 3047 0 
L 2419 0 
L 2419 1100 
L 313 1100 
L 313 1709 
L 2253 4666 
z
" transform="scale(0.015625)"/>
       </defs>
       <use xlink:href="#DejaVuSans-34"/>
       <use xlink:href="#DejaVuSans-30" x="63.623047"/>
      </g>
     </g>
    </g>
    <g id="xtick_4">
     <g id="text_4">
      <!-- 60 -->
      <g transform="translate(449.244768 287.06881) scale(0.08 -0.08)">
       <defs>
        <path id="DejaVuSans-36" d="M 2113 2584 
Q 1688 2584 1439 2293 
Q 1191 2003 1191 1497 
Q 1191 994 1439 701 
Q 1688 409 2113 409 
Q 2538 409 2786 701 
Q 3034 994 3034 1497 
Q 3034 2003 2786 2293 
Q 2538 2584 2113 2584 
z
M 3366 4563 
L 3366 3988 
Q 3128 4100 2886 4159 
Q 2644 4219 2406 4219 
Q 1781 4219 1451 3797 
Q 1122 3375 1075 2522 
Q 1259 2794 1537 2939 
Q 1816 3084 2150 3084 
Q 2853 3084 3261 2657 
Q 3669 2231 3669 1497 
Q 3669 778 3244 343 
Q 2819 -91 2113 -91 
Q 1303 -91 875 529 
Q 447 1150 447 2328 
Q 447 3434 972 4092 
Q 1497 4750 2381 4750 
Q 2619 4750 2861 4703 
Q 3103 4656 3366 4563 
z
" transform="scale(0.015625)"/>
       </defs>
       <use xlink:href="#DejaVuSans-36"/>
       <use xlink:href="#DejaVuSans-30" x="63.623047"/>
      </g>
     </g>
    </g>
    <g id="xtick_5">
     <g id="text_5">
      <!-- 80 -->
      <g transform="translate(573.17021 287.06881) scale(0.08 -0.08)">
       <defs>
        <path id="DejaVuSans-38" d="M 2034 2216 
Q 1584 2216 1326 1975 
Q 1069 1734 1069 1313 
Q 1069 891 1326 650 
Q 1584 409 2034 409 
Q 2484 409 2743 651 
Q 3003 894 3003 1313 
Q 3003 1734 2745 1975 
Q 2488 2216 2034 2216 
z
M 1403 2484 
Q 997 2584 770 2862 
Q 544 3141 544 3541 
Q 544 4100 942 4425 
Q 1341 4750 2034 4750 
Q 2731 4750 3128 4425 
Q 3525 4100 3525 3541 
Q 3525 3141 3298 2862 
Q 3072 2584 2669 2484 
Q 3125 2378 3379 2068 
Q 3634 1759 3634 1313 
Q 3634 634 3220 271 
Q 2806 -91 2034 -91 
Q 1263 -91 848 271 
Q 434 634 434 1313 
Q 434 1759 690 2068 
Q 947 2378 1403 2484 
z
M 1172 3481 
Q 1172 3119 1398 2916 
Q 1625 2713 2034 2713 
Q 2441 2713 2670 2916 
Q 2900 3119 2900 3481 
Q 2900 3844 2670 4047 
Q 2441 4250 2034 4250 
Q 1625 4250 1398 4047 
Q 1172 3844 1172 3481 
z
" transform="scale(0.015625)"/>
       </defs>
       <use xlink:href="#DejaVuSans-38"/>
       <use xlink:href="#DejaVuSans-30" x="63.623047"/>
      </g>
     </g>
    </g>
    <g id="xtick_6">
     <g id="text_6">
      <!-- 100 -->
      <g transform="translate(694.550651 287.06881) scale(0.08 -0.08)">
       <defs>
        <path id="DejaVuSans-31" d="M 794 531 
L 1825 531 
L 1825 4091 
L 703 3866 
L 703 4441 
L 1819 4666 
L 2450 4666 
L 2450 531 
L 3481 531 
L 3481 0 
L 794 0 
L 794 531 
z
" transform="scale(0.015625)"/>
       </defs>
       <use xlink:href="#DejaVuSans-31"/>
       <use xlink:href="#DejaVuSans-30" x="63.623047"/>
       <use xlink:href="#DejaVuSans-30" x="127.246094"/>
      </g>
     </g>
    </g>
    <g id="xtick_7">
     <g id="text_7">
      <!-- 120 -->
      <g transform="translate(818.476093 287.06881) scale(0.08 -0.08)">
       <use xlink:href="#DejaVuSans-31"/>
       <use xlink:href="#DejaVuSans-32" x="63.623047"/>
       <use xlink:href="#DejaVuSans-30" x="127.246094"/>
      </g>
     </g>
    </g>
    <g id="xtick_8">
     <g id="text_8">
      <!-- 140 -->
      <g transform="translate(942.401534 287.06881) scale(0.08 -0.08)">
       <use xlink:href="#DejaVuSans-31"/>
       <use xlink:href="#DejaVuSans-34" x="63.623047"/>
       <use xlink:href="#DejaVuSans-30" x="127.246094"/>
      </g>
     </g>
    </g>
    <g id="text_9">
     <!-- Position (bp) -->
     <g transform="translate(488.0925 300.330997) scale(0.1 -0.1)">
      <defs>
       <path id="DejaVuSans-50" d="M 1259 4147 
L 1259 2394 
L 2053 2394 
Q 2494 2394 2734 2622 
Q 2975 2850 2975 3272 
Q 2975 3691 2734 3919 
Q 2494 4147 2053 4147 
L 1259 4147 
z
M 628 4666 
L 2053 4666 
Q 2838 4666 3239 4311 
Q 3641 3956 3641 3272 
Q 3641 2581 3239 2228 
Q 2838 1875 2053 1875 
L 1259 1875 
L 1259 0 
L 628 0 
L 628 4666 
z
" transform="scale(0.015625)"/>
       <path id="DejaVuSans-6f" d="M 1959 3097 
Q 1497 3097 1228 2736 
Q 959 2375 959 1747 
Q 959 1119 1226 758 
Q 1494 397 1959 397 
Q 2419 397 2687 759 
Q 2956 1122 2956 1747 
Q 2956 2369 2687 2733 
Q 2419 3097 1959 3097 
z
M 1959 3584 
Q 2709 3584 3137 3096 
Q 3566 2609 3566 1747 
Q 3566 888 3137 398 
Q 2709 -91 1959 -91 
Q 1206 -91 779 398 
Q 353 888 353 1747 
Q 353 2609 779 3096 
Q 1206 3584 1959 3584 
z
" transform="scale(0.015625)"/>
       <path id="DejaVuSans-73" d="M 2834 3397 
L 2834 2853 
Q 2591 2978 2328 3040 
Q 2066 3103 1784 3103 
Q 1356 3103 1142 2972 
Q 928 2841 928 2578 
Q 928 2378 1081 2264 
Q 1234 2150 1697 2047 
L 1894 2003 
Q 2506 1872 2764 1633 
Q 3022 1394 3022 966 
Q 3022 478 2636 193 
Q 2250 -91 1575 -91 
Q 1294 -91 989 -36 
Q 684 19 347 128 
L 347 722 
Q 666 556 975 473 
Q 1284 391 1588 391 
Q 1994 391 2212 530 
Q 2431 669 2431 922 
Q 2431 1156 2273 1281 
Q 2116 1406 1581 1522 
L 1381 1569 
Q 847 1681 609 1914 
Q 372 2147 372 2553 
Q 372 3047 722 3315 
Q 1072 3584 1716 3584 
Q 2034 3584 2315 3537 
Q 2597 3491 2834 3397 
z
" transform="scale(0.015625)"/>
       <path id="DejaVuSans-69" d="M 603 3500 
L 1178 3500 
L 1178 0 
L 603 0 
L 603 3500 
z
M 603 4863 
L 1178 4863 
L 1178 4134 
L 603 4134 
L 603 4863 
z
" transform="scale(0.015625)"/>
       <path id="DejaVuSans-74" d="M 1172 4494 
L 1172 3500 
L 2356 3500 
L 2356 3053 
L 1172 3053 
L 1172 1153 
Q 1172 725 1289 603 
Q 1406 481 1766 481 
L 2356 481 
L 2356 0 
L 1766 0 
Q 1100 0 847 248 
Q 594 497 594 1153 
L 594 3053 
L 172 3053 
L 172 3500 
L 594 3500 
L 594 4494 
L 1172 4494 
z
" transform="scale(0.015625)"/>
       <path id="DejaVuSans-6e" d="M 3513 2113 
L 3513 0 
L 2938 0 
L 2938 2094 
Q 2938 2591 2744 2837 
Q 2550 3084 2163 3084 
Q 1697 3084 1428 2787 
Q 1159 2491 1159 1978 
L 1159 0 
L 581 0 
L 581 3500 
L 1159 3500 
L 1159 2956 
Q 1366 3272 1645 3428 
Q 1925 3584 2291 3584 
Q 2894 3584 3203 3211 
Q 3513 2838 3513 2113 
z
" transform="scale(0.015625)"/>
       <path id="DejaVuSans-20" transform="scale(0.015625)"/>
       <path id="DejaVuSans-28" d="M 1984 4856 
Q 1566 4138 1362 3434 
Q 1159 2731 1159 2009 
Q 1159 1288 1364 580 
Q 1569 -128 1984 -844 
L 1484 -844 
Q 1016 -109 783 600 
Q 550 1309 550 2009 
Q 550 2706 781 3412 
Q 1013 4119 1484 4856 
L 1984 4856 
z
" transform="scale(0.015625)"/>
       <path id="DejaVuSans-62" d="M 3116 1747 
Q 3116 2381 2855 2742 
Q 2594 3103 2138 3103 
Q 1681 3103 1420 2742 
Q 1159 2381 1159 1747 
Q 1159 1113 1420 752 
Q 1681 391 2138 391 
Q 2594 391 2855 752 
Q 3116 1113 3116 1747 
z
M 1159 2969 
Q 1341 3281 1617 3432 
Q 1894 3584 2278 3584 
Q 2916 3584 3314 3078 
Q 3713 2572 3713 1747 
Q 3713 922 3314 415 
Q 2916 -91 2278 -91 
Q 1894 -91 1617 61 
Q 1341 213 1159 525 
L 1159 0 
L 581 0 
L 581 4863 
L 1159 4863 
L 1159 2969 
z
" transform="scale(0.015625)"/>
       <path id="DejaVuSans-70" d="M 1159 525 
L 1159 -1331 
L 581 -1331 
L 581 3500 
L 1159 3500 
L 1159 2969 
Q 1341 3281 1617 3432 
Q 1894 3584 2278 3584 
Q 2916 3584 3314 3078 
Q 3713 2572 3713 1747 
Q 3713 922 3314 415 
Q 2916 -91 2278 -91 
Q 1894 -91 1617 61 
Q 1341 213 1159 525 
z
M 3116 1747 
Q 3116 2381 2855 2742 
Q 2594 3103 2138 3103 
Q 1681 3103 1420 2742 
Q 1159 2381 1159 1747 
Q 1159 1113 1420 752 
Q 1681 391 2138 391 
Q 2594 391 2855 752 
Q 3116 1113 3116 1747 
z
" transform="scale(0.015625)"/>
       <path id="DejaVuSans-29" d="M 513 4856 
L 1013 4856 
Q 1481 4119 1714 3412 
Q 1947 2706 1947 2009 
Q 1947 1309 1714 600 
Q 1481 -109 1013 -844 
L 513 -844 
Q 928 -128 1133 580 
Q 1338 1288 1338 2009 
Q 1338 2731 1133 3434 
Q 928 4138 513 4856 
z
" transform="scale(0.015625)"/>
      </defs>
      <use xlink:href="#DejaVuSans-50"/>
      <use xlink:href="#DejaVuSans-6f" x="56.677734"/>
      <use xlink:href="#DejaVuSans-73" x="117.859375"/>
      <use xlink:href="#DejaVuSans-69" x="169.958984"/>
      <use xlink:href="#DejaVuSans-74" x="197.742188"/>
      <use xlink:href="#DejaVuSans-69" x="236.951172"/>
      <use xlink:href="#DejaVuSans-6f" x="264.734375"/>
      <use xlink:href="#DejaVuSans-6e" x="325.916016"/>
      <use xlink:href="#DejaVuSans-20" x="389.294922"/>
      <use xlink:href="#DejaVuSans-28" x="421.082031"/>
      <use xlink:href="#DejaVuSans-62" x="460.095703"/>
      <use xlink:href="#DejaVuSans-70" x="523.572266"/>
      <use xlink:href="#DejaVuSans-29" x="587.048828"/>
     </g>
    </g>
   </g>
   <g id="matplotlib.axis_2">
    <g id="ytick_1">
     <g id="line2d_1">
      <path d="M 45.690625 273.99006 
L 993.100625 273.99006 
" clip-path="url(#pdf7cef792d)" style="fill: none; stroke: #dedede; stroke-linecap: square"/>
     </g>
     <g id="text_10">
      <!-- 0.0 -->
      <g transform="translate(25.968125 277.029435) scale(0.08 -0.08)">
       <defs>
        <path id="DejaVuSans-2e" d="M 684 794 
L 1344 794 
L 1344 0 
L 684 0 
L 684 794 
z
" transform="scale(0.015625)"/>
       </defs>
       <use xlink:href="#DejaVuSans-30"/>
       <use xlink:href="#DejaVuSans-2e" x="63.623047"/>
       <use xlink:href="#DejaVuSans-30" x="95.410156"/>
      </g>
     </g>
    </g>
    <g id="ytick_2">
     <g id="line2d_2">
      <path d="M 45.690625 245.879572 
L 993.100625 245.879572 
" clip-path="url(#pdf7cef792d)" style="fill: none; stroke: #dedede; stroke-linecap: square"/>
     </g>
     <g id="text_11">
      <!-- 2.5 -->
      <g transform="translate(25.968125 248.918947) scale(0.08 -0.08)">
       <defs>
        <path id="DejaVuSans-35" d="M 691 4666 
L 3169 4666 
L 3169 4134 
L 1269 4134 
L 1269 2991 
Q 1406 3038 1543 3061 
Q 1681 3084 1819 3084 
Q 2600 3084 3056 2656 
Q 3513 2228 3513 1497 
Q 3513 744 3044 326 
Q 2575 -91 1722 -91 
Q 1428 -91 1123 -41 
Q 819 9 494 109 
L 494 744 
Q 775 591 1075 516 
Q 1375 441 1709 441 
Q 2250 441 2565 725 
Q 2881 1009 2881 1497 
Q 2881 1984 2565 2268 
Q 2250 2553 1709 2553 
Q 1456 2553 1204 2497 
Q 953 2441 691 2322 
L 691 4666 
z
" transform="scale(0.015625)"/>
       </defs>
       <use xlink:href="#DejaVuSans-32"/>
       <use xlink:href="#DejaVuSans-2e" x="63.623047"/>
       <use xlink:href="#DejaVuSans-35" x="95.410156"/>
      </g>
     </g>
    </g>
    <g id="ytick_3">
     <g id="line2d_3">
      <path d="M 45.690625 217.769083 
L 993.100625 217.769083 
" clip-path="url(#pdf7cef792d)" style="fill: none; stroke: #dedede; stroke-linecap: square"/>
     </g>
     <g id="text_12">
      <!-- 5.0 -->
      <g transform="translate(25.968125 220.808458) scale(0.08 -0.08)">
       <use xlink:href="#DejaVuSans-35"/>
       <use xlink:href="#DejaVuSans-2e" x="63.623047"/>
       <use xlink:href="#DejaVuSans-30" x="95.410156"/>
      </g>
     </g>
    </g>
    <g id="ytick_4">
     <g id="line2d_4">
      <path d="M 45.690625 189.658595 
L 993.100625 189.658595 
" clip-path="url(#pdf7cef792d)" style="fill: none; stroke: #dedede; stroke-linecap: square"/>
     </g>
     <g id="text_13">
      <!-- 7.5 -->
      <g transform="translate(25.968125 192.69797) scale(0.08 -0.08)">
       <defs>
        <path id="DejaVuSans-37" d="M 525 4666 
L 3525 4666 
L 3525 4397 
L 1831 0 
L 1172 0 
L 2766 4134 
L 525 4134 
L 525 4666 
z
" transform="scale(0.015625)"/>
       </defs>
       <use xlink:href="#DejaVuSans-37"/>
       <use xlink:href="#DejaVuSans-2e" x="63.623047"/>
       <use xlink:href="#DejaVuSans-35" x="95.410156"/>
      </g>
     </g>
    </g>
    <g id="ytick_5">
     <g id="line2d_5">
      <path d="M 45.690625 161.548107 
L 993.100625 161.548107 
" clip-path="url(#pdf7cef792d)" style="fill: none; stroke: #dedede; stroke-linecap: square"/>
     </g>
     <g id="text_14">
      <!-- 10.0 -->
      <g transform="translate(20.878125 164.587482) scale(0.08 -0.08)">
       <use xlink:href="#DejaVuSans-31"/>
       <use xlink:href="#DejaVuSans-30" x="63.623047"/>
       <use xlink:href="#DejaVuSans-2e" x="127.246094"/>
       <use xlink:href="#DejaVuSans-30" x="159.033203"/>
      </g>
     </g>
    </g>
    <g id="ytick_6">
     <g id="line2d_6">
      <path d="M 45.690625 133.437618 
L 993.100625 133.437618 
" clip-path="url(#pdf7cef792d)" style="fill: none; stroke: #dedede; stroke-linecap: square"/>
     </g>
     <g id="text_15">
      <!-- 12.5 -->
      <g transform="translate(20.878125 136.476993) scale(0.08 -0.08)">
       <use xlink:href="#DejaVuSans-31"/>
       <use xlink:href="#DejaVuSans-32" x="63.623047"/>
       <use xlink:href="#DejaVuSans-2e" x="127.246094"/>
       <use xlink:href="#DejaVuSans-35" x="159.033203"/>
      </g>
     </g>
    </g>
    <g id="ytick_7">
     <g id="line2d_7">
      <path d="M 45.690625 105.32713 
L 993.100625 105.32713 
" clip-path="url(#pdf7cef792d)" style="fill: none; stroke: #dedede; stroke-linecap: square"/>
     </g>
     <g id="text_16">
      <!-- 15.0 -->
      <g transform="translate(20.878125 108.366505) scale(0.08 -0.08)">
       <use xlink:href="#DejaVuSans-31"/>
       <use xlink:href="#DejaVuSans-35" x="63.623047"/>
       <use xlink:href="#DejaVuSans-2e" x="127.246094"/>
       <use xlink:href="#DejaVuSans-30" x="159.033203"/>
      </g>
     </g>
    </g>
    <g id="ytick_8">
     <g id="line2d_8">
      <path d="M 45.690625 77.216642 
L 993.100625 77.216642 
" clip-path="url(#pdf7cef792d)" style="fill: none; stroke: #dedede; stroke-linecap: square"/>
     </g>
     <g id="text_17">
      <!-- 17.5 -->
      <g transform="translate(20.878125 80.256017) scale(0.08 -0.08)">
       <use xlink:href="#DejaVuSans-31"/>
       <use xlink:href="#DejaVuSans-37" x="63.623047"/>
       <use xlink:href="#DejaVuSans-2e" x="127.246094"/>
       <use xlink:href="#DejaVuSans-35" x="159.033203"/>
      </g>
     </g>
    </g>
    <g id="ytick_9">
     <g id="line2d_9">
      <path d="M 45.690625 49.106153 
L 993.100625 49.106153 
" clip-path="url(#pdf7cef792d)" style="fill: none; stroke: #dedede; stroke-linecap: square"/>
     </g>
     <g id="text_18">
      <!-- 20.0 -->
      <g transform="translate(20.878125 52.145528) scale(0.08 -0.08)">
       <use xlink:href="#DejaVuSans-32"/>
       <use xlink:href="#DejaVuSans-30" x="63.623047"/>
       <use xlink:href="#DejaVuSans-2e" x="127.246094"/>
       <use xlink:href="#DejaVuSans-30" x="159.033203"/>
      </g>
     </g>
    </g>
    <g id="text_19">
     <!-- % of Sequences -->
     <g transform="translate(14.798438 192.754429) rotate(-90) scale(0.1 -0.1)">
      <defs>
       <path id="DejaVuSans-25" d="M 4653 2053 
Q 4381 2053 4226 1822 
Q 4072 1591 4072 1178 
Q 4072 772 4226 539 
Q 4381 306 4653 306 
Q 4919 306 5073 539 
Q 5228 772 5228 1178 
Q 5228 1588 5073 1820 
Q 4919 2053 4653 2053 
z
M 4653 2450 
Q 5147 2450 5437 2106 
Q 5728 1763 5728 1178 
Q 5728 594 5436 251 
Q 5144 -91 4653 -91 
Q 4153 -91 3862 251 
Q 3572 594 3572 1178 
Q 3572 1766 3864 2108 
Q 4156 2450 4653 2450 
z
M 1428 4353 
Q 1159 4353 1004 4120 
Q 850 3888 850 3481 
Q 850 3069 1003 2837 
Q 1156 2606 1428 2606 
Q 1700 2606 1854 2837 
Q 2009 3069 2009 3481 
Q 2009 3884 1853 4118 
Q 1697 4353 1428 4353 
z
M 4250 4750 
L 4750 4750 
L 1831 -91 
L 1331 -91 
L 4250 4750 
z
M 1428 4750 
Q 1922 4750 2215 4408 
Q 2509 4066 2509 3481 
Q 2509 2891 2217 2550 
Q 1925 2209 1428 2209 
Q 931 2209 642 2551 
Q 353 2894 353 3481 
Q 353 4063 643 4406 
Q 934 4750 1428 4750 
z
" transform="scale(0.015625)"/>
       <path id="DejaVuSans-66" d="M 2375 4863 
L 2375 4384 
L 1825 4384 
Q 1516 4384 1395 4259 
Q 1275 4134 1275 3809 
L 1275 3500 
L 2222 3500 
L 2222 3053 
L 1275 3053 
L 1275 0 
L 697 0 
L 697 3053 
L 147 3053 
L 147 3500 
L 697 3500 
L 697 3744 
Q 697 4328 969 4595 
Q 1241 4863 1831 4863 
L 2375 4863 
z
" transform="scale(0.015625)"/>
       <path id="DejaVuSans-53" d="M 3425 4513 
L 3425 3897 
Q 3066 4069 2747 4153 
Q 2428 4238 2131 4238 
Q 1616 4238 1336 4038 
Q 1056 3838 1056 3469 
Q 1056 3159 1242 3001 
Q 1428 2844 1947 2747 
L 2328 2669 
Q 3034 2534 3370 2195 
Q 3706 1856 3706 1288 
Q 3706 609 3251 259 
Q 2797 -91 1919 -91 
Q 1588 -91 1214 -16 
Q 841 59 441 206 
L 441 856 
Q 825 641 1194 531 
Q 1563 422 1919 422 
Q 2459 422 2753 634 
Q 3047 847 3047 1241 
Q 3047 1584 2836 1778 
Q 2625 1972 2144 2069 
L 1759 2144 
Q 1053 2284 737 2584 
Q 422 2884 422 3419 
Q 422 4038 858 4394 
Q 1294 4750 2059 4750 
Q 2388 4750 2728 4690 
Q 3069 4631 3425 4513 
z
" transform="scale(0.015625)"/>
       <path id="DejaVuSans-65" d="M 3597 1894 
L 3597 1613 
L 953 1613 
Q 991 1019 1311 708 
Q 1631 397 2203 397 
Q 2534 397 2845 478 
Q 3156 559 3463 722 
L 3463 178 
Q 3153 47 2828 -22 
Q 2503 -91 2169 -91 
Q 1331 -91 842 396 
Q 353 884 353 1716 
Q 353 2575 817 3079 
Q 1281 3584 2069 3584 
Q 2775 3584 3186 3129 
Q 3597 2675 3597 1894 
z
M 3022 2063 
Q 3016 2534 2758 2815 
Q 2500 3097 2075 3097 
Q 1594 3097 1305 2825 
Q 1016 2553 972 2059 
L 3022 2063 
z
" transform="scale(0.015625)"/>
       <path id="DejaVuSans-71" d="M 947 1747 
Q 947 1113 1208 752 
Q 1469 391 1925 391 
Q 2381 391 2643 752 
Q 2906 1113 2906 1747 
Q 2906 2381 2643 2742 
Q 2381 3103 1925 3103 
Q 1469 3103 1208 2742 
Q 947 2381 947 1747 
z
M 2906 525 
Q 2725 213 2448 61 
Q 2172 -91 1784 -91 
Q 1150 -91 751 415 
Q 353 922 353 1747 
Q 353 2572 751 3078 
Q 1150 3584 1784 3584 
Q 2172 3584 2448 3432 
Q 2725 3281 2906 2969 
L 2906 3500 
L 3481 3500 
L 3481 -1331 
L 2906 -1331 
L 2906 525 
z
" transform="scale(0.015625)"/>
       <path id="DejaVuSans-75" d="M 544 1381 
L 544 3500 
L 1119 3500 
L 1119 1403 
Q 1119 906 1312 657 
Q 1506 409 1894 409 
Q 2359 409 2629 706 
Q 2900 1003 2900 1516 
L 2900 3500 
L 3475 3500 
L 3475 0 
L 2900 0 
L 2900 538 
Q 2691 219 2414 64 
Q 2138 -91 1772 -91 
Q 1169 -91 856 284 
Q 544 659 544 1381 
z
M 1991 3584 
L 1991 3584 
z
" transform="scale(0.015625)"/>
       <path id="DejaVuSans-63" d="M 3122 3366 
L 3122 2828 
Q 2878 2963 2633 3030 
Q 2388 3097 2138 3097 
Q 1578 3097 1268 2742 
Q 959 2388 959 1747 
Q 959 1106 1268 751 
Q 1578 397 2138 397 
Q 2388 397 2633 464 
Q 2878 531 3122 666 
L 3122 134 
Q 2881 22 2623 -34 
Q 2366 -91 2075 -91 
Q 1284 -91 818 406 
Q 353 903 353 1747 
Q 353 2603 823 3093 
Q 1294 3584 2113 3584 
Q 2378 3584 2631 3529 
Q 2884 3475 3122 3366 
z
" transform="scale(0.015625)"/>
      </defs>
      <use xlink:href="#DejaVuSans-25"/>
      <use xlink:href="#DejaVuSans-20" x="95.019531"/>
      <use xlink:href="#DejaVuSans-6f" x="126.806641"/>
      <use xlink:href="#DejaVuSans-66" x="187.988281"/>
      <use xlink:href="#DejaVuSans-20" x="223.193359"/>
      <use xlink:href="#DejaVuSans-53" x="254.980469"/>
      <use xlink:href="#DejaVuSans-65" x="318.457031"/>
      <use xlink:href="#DejaVuSans-71" x="379.980469"/>
      <use xlink:href="#DejaVuSans-75" x="443.457031"/>
      <use xlink:href="#DejaVuSans-65" x="506.835938"/>
      <use xlink:href="#DejaVuSans-6e" x="568.359375"/>
      <use xlink:href="#DejaVuSans-63" x="631.738281"/>
      <use xlink:href="#DejaVuSans-65" x="686.71875"/>
      <use xlink:href="#DejaVuSans-73" x="748.242188"/>
     </g>
    </g>
   </g>
   <g id="line2d_10">
    <path d="M 88.754716 273.99006 
L 94.950988 273.99006 
L 101.14726 273.99006 
L 107.343532 273.99006 
L 113.539804 273.99006 
L 119.736076 273.99006 
L 125.932348 273.99006 
L 132.12862 273.99006 
L 138.324892 273.99006 
L 156.913709 273.989352 
L 187.895069 273.988927 
L 218.876429 273.98652 
L 249.85779 273.917419 
L 280.83915 273.12609 
L 311.820511 271.345546 
L 342.801871 267.709834 
L 373.783231 263.510839 
L 404.764592 258.594713 
L 435.745952 253.324658 
L 466.727312 247.38413 
L 497.708673 240.911824 
L 528.690033 233.364776 
L 559.671393 225.137202 
L 590.652754 215.955599 
L 621.634114 205.823156 
L 652.615475 194.753464 
L 683.596835 182.709213 
L 714.578195 169.783151 
L 745.559556 155.933717 
L 776.540916 141.282193 
L 807.522276 125.668357 
L 838.503637 109.550144 
L 869.484997 92.643645 
L 900.466358 75.100374 
L 931.447718 56.795296 
L 950.036534 45.647937 
" clip-path="url(#pdf7cef792d)" style="fill: none; stroke: #7cb5ec; stroke-linecap: square"/>
   </g>
   <g id="line2d_11">
    <path d="M 88.754716 273.99006 
L 94.950988 273.99006 
L 101.14726 273.99006 
L 107.343532 273.99006 
L 113.539804 273.99006 
L 119.736076 273.99006 
L 125.932348 273.99006 
L 132.12862 273.99006 
L 138.324892 273.99006 
L 156.913709 273.99006 
L 187.895069 273.99006 
L 218.876429 273.99006 
L 249.85779 273.99006 
L 280.83915 273.99006 
L 311.820511 273.99006 
L 342.801871 273.99006 
L 373.783231 273.99006 
L 404.764592 273.99006 
L 435.745952 273.99006 
L 466.727312 273.989777 
L 497.708673 273.989564 
L 528.690033 273.988927 
L 559.671393 273.988361 
L 590.652754 273.987936 
L 621.634114 273.986591 
L 652.615475 273.9856 
L 683.596835 273.964076 
L 714.578195 273.91395 
L 745.559556 273.801379 
L 776.540916 273.664027 
L 807.522276 273.506427 
L 838.503637 273.347481 
L 869.484997 273.177137 
L 900.466358 272.999712 
L 931.447718 272.806924 
L 950.036534 272.673538 
" clip-path="url(#pdf7cef792d)" style="fill: none; stroke: #434348; stroke-linecap: square"/>
   </g>
   <g id="line2d_12">
    <path d="M 88.754716 273.99006 
L 94.950988 273.99006 
L 101.14726 273.99006 
L 107.343532 273.989706 
L 113.539804 273.989352 
L 119.736076 273.989352 
L 125.932348 273.988998 
L 132.12862 273.988644 
L 138.324892 273.987936 
L 156.913709 273.985883 
L 187.895069 273.983122 
L 218.876429 273.977741 
L 249.85779 273.907153 
L 280.83915 273.105346 
L 311.820511 271.281543 
L 342.801871 267.536941 
L 373.783231 263.248809 
L 404.764592 258.27052 
L 435.745952 252.921312 
L 466.727312 246.863963 
L 497.708673 240.282272 
L 528.690033 232.641273 
L 559.671393 224.315145 
L 590.652754 215.012688 
L 621.634114 204.754999 
L 652.615475 193.535991 
L 683.596835 181.364937 
L 714.578195 168.405103 
L 745.559556 154.52296 
L 776.540916 139.80807 
L 807.522276 124.057095 
L 838.503637 107.73427 
L 869.484997 90.498057 
L 900.466358 72.695729 
L 931.447718 54.236661 
L 950.036534 43.030822 
" clip-path="url(#pdf7cef792d)" style="fill: none; stroke: #90ed7d; stroke-linecap: square"/>
   </g>
   <g id="line2d_13">
    <path d="M 88.754716 273.99006 
L 94.950988 273.989812 
L 101.14726 273.989812 
L 107.343532 273.989812 
L 113.539804 273.989812 
L 119.736076 273.989565 
L 125.932348 273.989565 
L 132.12862 273.989565 
L 138.324892 273.989565 
L 156.913709 273.988921 
L 187.895069 273.988426 
L 218.876429 273.987188 
L 249.85779 273.944607 
L 280.83915 273.450074 
L 311.820511 272.435904 
L 342.801871 270.451135 
L 373.783231 268.299607 
L 404.764592 265.889871 
L 435.745952 263.463795 
L 466.727312 260.855215 
L 497.708673 258.177366 
L 528.690033 255.236358 
L 559.671393 252.112003 
L 590.652754 248.74875 
L 621.634114 245.294442 
L 652.615475 241.568112 
L 683.596835 237.646849 
L 714.578195 233.517138 
L 745.559556 229.164966 
L 776.540916 224.625883 
L 807.522276 219.82978 
L 838.503637 214.90831 
L 869.484997 209.609702 
L 900.466358 204.10616 
L 931.447718 198.224885 
L 950.036534 194.618375 
" clip-path="url(#pdf7cef792d)" style="fill: none; stroke: #f7a35c; stroke-linecap: square"/>
   </g>
   <g id="line2d_14">
    <path d="M 88.754716 273.99006 
L 94.950988 273.989812 
L 101.14726 273.989812 
L 107.343532 273.989317 
L 113.539804 273.988822 
L 119.736076 273.988822 
L 125.932348 273.988822 
L 132.12862 273.988822 
L 138.324892 273.988575 
L 156.913709 273.986396 
L 187.895069 273.982782 
L 218.876429 273.976048 
L 249.85779 273.925594 
L 280.83915 273.423485 
L 311.820511 272.380549 
L 342.801871 270.329334 
L 373.783231 268.123441 
L 404.764592 265.688997 
L 435.745952 263.232768 
L 466.727312 260.587549 
L 497.708673 257.867763 
L 528.690033 254.896502 
L 559.671393 251.732537 
L 590.652754 248.329525 
L 621.634114 244.836845 
L 652.615475 241.074865 
L 683.596835 237.126668 
L 714.578195 232.999928 
L 745.559556 228.653648 
L 776.540916 224.104613 
L 807.522276 219.293606 
L 838.503637 214.340943 
L 869.484997 208.966927 
L 900.466358 203.421052 
L 931.447718 197.54349 
L 950.036534 193.94624 
" clip-path="url(#pdf7cef792d)" style="fill: none; stroke: #8085e9; stroke-linecap: square"/>
   </g>
   <g id="line2d_15">
    <path d="M 88.754716 273.99006 
L 94.950988 273.99006 
L 101.14726 273.99006 
L 107.343532 273.99006 
L 113.539804 273.99006 
L 119.736076 273.99006 
L 125.932348 273.99006 
L 132.12862 273.99006 
L 138.324892 273.989865 
L 156.913709 273.989437 
L 187.895069 273.988891 
L 218.876429 273.986242 
L 249.85779 273.940002 
L 280.83915 273.39127 
L 311.820511 272.218934 
L 342.801871 269.885209 
L 373.783231 267.155732 
L 404.764592 263.997818 
L 435.745952 260.627986 
L 466.727312 256.738599 
L 497.708673 252.495455 
L 528.690033 247.607671 
L 559.671393 242.216032 
L 590.652754 236.042744 
L 621.634114 229.160812 
L 652.615475 221.476858 
L 683.596835 212.969339 
L 714.578195 203.568135 
L 745.559556 193.27344 
L 776.540916 182.153701 
L 807.522276 170.068832 
L 838.503637 157.336712 
L 869.484997 143.627152 
L 900.466358 129.180587 
L 931.447718 113.714821 
L 950.036534 104.195542 
" clip-path="url(#pdf7cef792d)" style="fill: none; stroke: #f15c80; stroke-linecap: square"/>
   </g>
   <g id="line2d_16">
    <path d="M 88.754716 273.99006 
L 94.950988 273.989865 
L 101.14726 273.989865 
L 107.343532 273.98967 
L 113.539804 273.989281 
L 119.736076 273.989281 
L 125.932348 273.989281 
L 132.12862 273.989086 
L 138.324892 273.988307 
L 156.913709 273.986554 
L 187.895069 273.98184 
L 218.876429 273.974049 
L 249.85779 273.921108 
L 280.83915 273.361547 
L 311.820511 272.161397 
L 342.801871 269.754824 
L 373.783231 266.952227 
L 404.764592 263.759721 
L 435.745952 260.344855 
L 466.727312 256.391075 
L 497.708673 252.086692 
L 528.690033 247.132682 
L 559.671393 241.681558 
L 590.652754 235.442513 
L 621.634114 228.484539 
L 652.615475 220.737983 
L 683.596835 212.149358 
L 714.578195 202.748699 
L 745.559556 192.474613 
L 776.540916 181.334733 
L 807.522276 169.198442 
L 838.503637 156.315563 
L 869.484997 142.407484 
L 900.466358 127.836767 
L 931.447718 112.339525 
L 950.036534 102.83092 
" clip-path="url(#pdf7cef792d)" style="fill: none; stroke: #e4d354; stroke-linecap: square"/>
   </g>
   <g id="line2d_17">
    <path d="M 45.690625 273.99006 
L 993.100625 273.99006 
" clip-path="url(#pdf7cef792d)" style="fill: none; stroke: #dedede; stroke-width: 2; stroke-linecap: square"/>
   </g>
   <g id="text_20">
    <!-- FastQC: Adapter Content -->
    <g transform="translate(420.098125 19.3575) scale(0.16 -0.16)">
     <defs>
      <path id="DejaVuSans-46" d="M 628 4666 
L 3309 4666 
L 3309 4134 
L 1259 4134 
L 1259 2759 
L 3109 2759 
L 3109 2228 
L 1259 2228 
L 1259 0 
L 628 0 
L 628 4666 
z
" transform="scale(0.015625)"/>
      <path id="DejaVuSans-61" d="M 2194 1759 
Q 1497 1759 1228 1600 
Q 959 1441 959 1056 
Q 959 750 1161 570 
Q 1363 391 1709 391 
Q 2188 391 2477 730 
Q 2766 1069 2766 1631 
L 2766 1759 
L 2194 1759 
z
M 3341 1997 
L 3341 0 
L 2766 0 
L 2766 531 
Q 2569 213 2275 61 
Q 1981 -91 1556 -91 
Q 1019 -91 701 211 
Q 384 513 384 1019 
Q 384 1609 779 1909 
Q 1175 2209 1959 2209 
L 2766 2209 
L 2766 2266 
Q 2766 2663 2505 2880 
Q 2244 3097 1772 3097 
Q 1472 3097 1187 3025 
Q 903 2953 641 2809 
L 641 3341 
Q 956 3463 1253 3523 
Q 1550 3584 1831 3584 
Q 2591 3584 2966 3190 
Q 3341 2797 3341 1997 
z
" transform="scale(0.015625)"/>
      <path id="DejaVuSans-51" d="M 2522 4238 
Q 1834 4238 1429 3725 
Q 1025 3213 1025 2328 
Q 1025 1447 1429 934 
Q 1834 422 2522 422 
Q 3209 422 3611 934 
Q 4013 1447 4013 2328 
Q 4013 3213 3611 3725 
Q 3209 4238 2522 4238 
z
M 3406 84 
L 4238 -825 
L 3475 -825 
L 2784 -78 
Q 2681 -84 2626 -87 
Q 2572 -91 2522 -91 
Q 1538 -91 948 567 
Q 359 1225 359 2328 
Q 359 3434 948 4092 
Q 1538 4750 2522 4750 
Q 3503 4750 4090 4092 
Q 4678 3434 4678 2328 
Q 4678 1516 4351 937 
Q 4025 359 3406 84 
z
" transform="scale(0.015625)"/>
      <path id="DejaVuSans-43" d="M 4122 4306 
L 4122 3641 
Q 3803 3938 3442 4084 
Q 3081 4231 2675 4231 
Q 1875 4231 1450 3742 
Q 1025 3253 1025 2328 
Q 1025 1406 1450 917 
Q 1875 428 2675 428 
Q 3081 428 3442 575 
Q 3803 722 4122 1019 
L 4122 359 
Q 3791 134 3420 21 
Q 3050 -91 2638 -91 
Q 1578 -91 968 557 
Q 359 1206 359 2328 
Q 359 3453 968 4101 
Q 1578 4750 2638 4750 
Q 3056 4750 3426 4639 
Q 3797 4528 4122 4306 
z
" transform="scale(0.015625)"/>
      <path id="DejaVuSans-3a" d="M 750 794 
L 1409 794 
L 1409 0 
L 750 0 
L 750 794 
z
M 750 3309 
L 1409 3309 
L 1409 2516 
L 750 2516 
L 750 3309 
z
" transform="scale(0.015625)"/>
      <path id="DejaVuSans-41" d="M 2188 4044 
L 1331 1722 
L 3047 1722 
L 2188 4044 
z
M 1831 4666 
L 2547 4666 
L 4325 0 
L 3669 0 
L 3244 1197 
L 1141 1197 
L 716 0 
L 50 0 
L 1831 4666 
z
" transform="scale(0.015625)"/>
      <path id="DejaVuSans-64" d="M 2906 2969 
L 2906 4863 
L 3481 4863 
L 3481 0 
L 2906 0 
L 2906 525 
Q 2725 213 2448 61 
Q 2172 -91 1784 -91 
Q 1150 -91 751 415 
Q 353 922 353 1747 
Q 353 2572 751 3078 
Q 1150 3584 1784 3584 
Q 2172 3584 2448 3432 
Q 2725 3281 2906 2969 
z
M 947 1747 
Q 947 1113 1208 752 
Q 1469 391 1925 391 
Q 2381 391 2643 752 
Q 2906 1113 2906 1747 
Q 2906 2381 2643 2742 
Q 2381 3103 1925 3103 
Q 1469 3103 1208 2742 
Q 947 2381 947 1747 
z
" transform="scale(0.015625)"/>
      <path id="DejaVuSans-72" d="M 2631 2963 
Q 2534 3019 2420 3045 
Q 2306 3072 2169 3072 
Q 1681 3072 1420 2755 
Q 1159 2438 1159 1844 
L 1159 0 
L 581 0 
L 581 3500 
L 1159 3500 
L 1159 2956 
Q 1341 3275 1631 3429 
Q 1922 3584 2338 3584 
Q 2397 3584 2469 3576 
Q 2541 3569 2628 3553 
L 2631 2963 
z
" transform="scale(0.015625)"/>
     </defs>
     <use xlink:href="#DejaVuSans-46"/>
     <use xlink:href="#DejaVuSans-61" x="48.394531"/>
     <use xlink:href="#DejaVuSans-73" x="109.673828"/>
     <use xlink:href="#DejaVuSans-74" x="161.773438"/>
     <use xlink:href="#DejaVuSans-51" x="200.982422"/>
     <use xlink:href="#DejaVuSans-43" x="279.693359"/>
     <use xlink:href="#DejaVuSans-3a" x="349.517578"/>
     <use xlink:href="#DejaVuSans-20" x="383.208984"/>
     <use xlink:href="#DejaVuSans-41" x="414.996094"/>
     <use xlink:href="#DejaVuSans-64" x="481.654297"/>
     <use xlink:href="#DejaVuSans-61" x="545.130859"/>
     <use xlink:href="#DejaVuSans-70" x="606.410156"/>
     <use xlink:href="#DejaVuSans-74" x="669.886719"/>
     <use xlink:href="#DejaVuSans-65" x="709.095703"/>
     <use xlink:href="#DejaVuSans-72" x="770.619141"/>
     <use xlink:href="#DejaVuSans-20" x="811.732422"/>
     <use xlink:href="#DejaVuSans-43" x="843.519531"/>
     <use xlink:href="#DejaVuSans-6f" x="913.34375"/>
     <use xlink:href="#DejaVuSans-6e" x="974.525391"/>
     <use xlink:href="#DejaVuSans-74" x="1037.904297"/>
     <use xlink:href="#DejaVuSans-65" x="1077.113281"/>
     <use xlink:href="#DejaVuSans-6e" x="1138.636719"/>
     <use xlink:href="#DejaVuSans-74" x="1202.015625"/>
    </g>
   </g>
   <g id="legend_1">
    <g id="line2d_18">
     <path d="M 52.890625 303.490394 
L 60.890625 303.490394 
L 68.890625 303.490394 
" style="fill: none; stroke: #7cb5ec; stroke-linecap: square"/>
    </g>
    <g id="text_21">
     <!-- SRR12574846_1 - nextera_transposase_sequence -->
     <g transform="translate(75.290625 306.290394) scale(0.08 -0.08)">
      <defs>
       <path id="DejaVuSans-52" d="M 2841 2188 
Q 3044 2119 3236 1894 
Q 3428 1669 3622 1275 
L 4263 0 
L 3584 0 
L 2988 1197 
Q 2756 1666 2539 1819 
Q 2322 1972 1947 1972 
L 1259 1972 
L 1259 0 
L 628 0 
L 628 4666 
L 2053 4666 
Q 2853 4666 3247 4331 
Q 3641 3997 3641 3322 
Q 3641 2881 3436 2590 
Q 3231 2300 2841 2188 
z
M 1259 4147 
L 1259 2491 
L 2053 2491 
Q 2509 2491 2742 2702 
Q 2975 2913 2975 3322 
Q 2975 3731 2742 3939 
Q 2509 4147 2053 4147 
L 1259 4147 
z
" transform="scale(0.015625)"/>
       <path id="DejaVuSans-5f" d="M 3263 -1063 
L 3263 -1509 
L -63 -1509 
L -63 -1063 
L 3263 -1063 
z
" transform="scale(0.015625)"/>
       <path id="DejaVuSans-2d" d="M 313 2009 
L 1997 2009 
L 1997 1497 
L 313 1497 
L 313 2009 
z
" transform="scale(0.015625)"/>
       <path id="DejaVuSans-78" d="M 3513 3500 
L 2247 1797 
L 3578 0 
L 2900 0 
L 1881 1375 
L 863 0 
L 184 0 
L 1544 1831 
L 300 3500 
L 978 3500 
L 1906 2253 
L 2834 3500 
L 3513 3500 
z
" transform="scale(0.015625)"/>
      </defs>
      <use xlink:href="#DejaVuSans-53"/>
      <use xlink:href="#DejaVuSans-52" x="63.476562"/>
      <use xlink:href="#DejaVuSans-52" x="132.958984"/>
      <use xlink:href="#DejaVuSans-31" x="202.441406"/>
      <use xlink:href="#DejaVuSans-32" x="266.064453"/>
      <use xlink:href="#DejaVuSans-35" x="329.6875"/>
      <use xlink:href="#DejaVuSans-37" x="393.310547"/>
      <use xlink:href="#DejaVuSans-34" x="456.933594"/>
      <use xlink:href="#DejaVuSans-38" x="520.556641"/>
      <use xlink:href="#DejaVuSans-34" x="584.179688"/>
      <use xlink:href="#DejaVuSans-36" x="647.802734"/>
      <use xlink:href="#DejaVuSans-5f" x="711.425781"/>
      <use xlink:href="#DejaVuSans-31" x="761.425781"/>
      <use xlink:href="#DejaVuSans-20" x="825.048828"/>
      <use xlink:href="#DejaVuSans-2d" x="856.835938"/>
      <use xlink:href="#DejaVuSans-20" x="892.919922"/>
      <use xlink:href="#DejaVuSans-6e" x="924.707031"/>
      <use xlink:href="#DejaVuSans-65" x="988.085938"/>
      <use xlink:href="#DejaVuSans-78" x="1047.859375"/>
      <use xlink:href="#DejaVuSans-74" x="1107.039062"/>
      <use xlink:href="#DejaVuSans-65" x="1146.248047"/>
      <use xlink:href="#DejaVuSans-72" x="1207.771484"/>
      <use xlink:href="#DejaVuSans-61" x="1248.884766"/>
      <use xlink:href="#DejaVuSans-5f" x="1310.164062"/>
      <use xlink:href="#DejaVuSans-74" x="1360.164062"/>
      <use xlink:href="#DejaVuSans-72" x="1399.373047"/>
      <use xlink:href="#DejaVuSans-61" x="1440.486328"/>
      <use xlink:href="#DejaVuSans-6e" x="1501.765625"/>
      <use xlink:href="#DejaVuSans-73" x="1565.144531"/>
      <use xlink:href="#DejaVuSans-70" x="1617.244141"/>
      <use xlink:href="#DejaVuSans-6f" x="1680.720703"/>
      <use xlink:href="#DejaVuSans-73" x="1741.902344"/>
      <use xlink:href="#DejaVuSans-61" x="1794.001953"/>
      <use xlink:href="#DejaVuSans-73" x="1855.28125"/>
      <use xlink:href="#DejaVuSans-65" x="1907.380859"/>
      <use xlink:href="#DejaVuSans-5f" x="1968.904297"/>
      <use xlink:href="#DejaVuSans-73" x="2018.904297"/>
      <use xlink:href="#DejaVuSans-65" x="2071.003906"/>
      <use xlink:href="#DejaVuSans-71" x="2132.527344"/>
      <use xlink:href="#DejaVuSans-75" x="2196.003906"/>
      <use xlink:href="#DejaVuSans-65" x="2259.382812"/>
      <use xlink:href="#DejaVuSans-6e" x="2320.90625"/>
      <use xlink:href="#DejaVuSans-63" x="2384.285156"/>
      <use xlink:href="#DejaVuSans-65" x="2439.265625"/>
     </g>
    </g>
    <g id="line2d_19">
     <path d="M 52.890625 315.455394 
L 60.890625 315.455394 
L 68.890625 315.455394 
" style="fill: none; stroke: #434348; stroke-linecap: square"/>
    </g>
    <g id="text_22">
     <!-- SRR12574846_1 - polya -->
     <g transform="translate(75.290625 318.255394) scale(0.08 -0.08)">
      <defs>
       <path id="DejaVuSans-6c" d="M 603 4863 
L 1178 4863 
L 1178 0 
L 603 0 
L 603 4863 
z
" transform="scale(0.015625)"/>
       <path id="DejaVuSans-79" d="M 2059 -325 
Q 1816 -950 1584 -1140 
Q 1353 -1331 966 -1331 
L 506 -1331 
L 506 -850 
L 844 -850 
Q 1081 -850 1212 -737 
Q 1344 -625 1503 -206 
L 1606 56 
L 191 3500 
L 800 3500 
L 1894 763 
L 2988 3500 
L 3597 3500 
L 2059 -325 
z
" transform="scale(0.015625)"/>
      </defs>
      <use xlink:href="#DejaVuSans-53"/>
      <use xlink:href="#DejaVuSans-52" x="63.476562"/>
      <use xlink:href="#DejaVuSans-52" x="132.958984"/>
      <use xlink:href="#DejaVuSans-31" x="202.441406"/>
      <use xlink:href="#DejaVuSans-32" x="266.064453"/>
      <use xlink:href="#DejaVuSans-35" x="329.6875"/>
      <use xlink:href="#DejaVuSans-37" x="393.310547"/>
      <use xlink:href="#DejaVuSans-34" x="456.933594"/>
      <use xlink:href="#DejaVuSans-38" x="520.556641"/>
      <use xlink:href="#DejaVuSans-34" x="584.179688"/>
      <use xlink:href="#DejaVuSans-36" x="647.802734"/>
      <use xlink:href="#DejaVuSans-5f" x="711.425781"/>
      <use xlink:href="#DejaVuSans-31" x="761.425781"/>
      <use xlink:href="#DejaVuSans-20" x="825.048828"/>
      <use xlink:href="#DejaVuSans-2d" x="856.835938"/>
      <use xlink:href="#DejaVuSans-20" x="892.919922"/>
      <use xlink:href="#DejaVuSans-70" x="924.707031"/>
      <use xlink:href="#DejaVuSans-6f" x="988.183594"/>
      <use xlink:href="#DejaVuSans-6c" x="1049.365234"/>
      <use xlink:href="#DejaVuSans-79" x="1077.148438"/>
      <use xlink:href="#DejaVuSans-61" x="1136.328125"/>
     </g>
    </g>
    <g id="line2d_20">
     <path d="M 230.526562 303.490394 
L 238.526562 303.490394 
L 246.526562 303.490394 
" style="fill: none; stroke: #90ed7d; stroke-linecap: square"/>
    </g>
    <g id="text_23">
     <!-- SRR12574846_2 - nextera_transposase_sequence -->
     <g transform="translate(252.926562 306.290394) scale(0.08 -0.08)">
      <use xlink:href="#DejaVuSans-53"/>
      <use xlink:href="#DejaVuSans-52" x="63.476562"/>
      <use xlink:href="#DejaVuSans-52" x="132.958984"/>
      <use xlink:href="#DejaVuSans-31" x="202.441406"/>
      <use xlink:href="#DejaVuSans-32" x="266.064453"/>
      <use xlink:href="#DejaVuSans-35" x="329.6875"/>
      <use xlink:href="#DejaVuSans-37" x="393.310547"/>
      <use xlink:href="#DejaVuSans-34" x="456.933594"/>
      <use xlink:href="#DejaVuSans-38" x="520.556641"/>
      <use xlink:href="#DejaVuSans-34" x="584.179688"/>
      <use xlink:href="#DejaVuSans-36" x="647.802734"/>
      <use xlink:href="#DejaVuSans-5f" x="711.425781"/>
      <use xlink:href="#DejaVuSans-32" x="761.425781"/>
      <use xlink:href="#DejaVuSans-20" x="825.048828"/>
      <use xlink:href="#DejaVuSans-2d" x="856.835938"/>
      <use xlink:href="#DejaVuSans-20" x="892.919922"/>
      <use xlink:href="#DejaVuSans-6e" x="924.707031"/>
      <use xlink:href="#DejaVuSans-65" x="988.085938"/>
      <use xlink:href="#DejaVuSans-78" x="1047.859375"/>
      <use xlink:href="#DejaVuSans-74" x="1107.039062"/>
      <use xlink:href="#DejaVuSans-65" x="1146.248047"/>
      <use xlink:href="#DejaVuSans-72" x="1207.771484"/>
      <use xlink:href="#DejaVuSans-61" x="1248.884766"/>
      <use xlink:href="#DejaVuSans-5f" x="1310.164062"/>
      <use xlink:href="#DejaVuSans-74" x="1360.164062"/>
      <use xlink:href="#DejaVuSans-72" x="1399.373047"/>
      <use xlink:href="#DejaVuSans-61" x="1440.486328"/>
      <use xlink:href="#DejaVuSans-6e" x="1501.765625"/>
      <use xlink:href="#DejaVuSans-73" x="1565.144531"/>
      <use xlink:href="#DejaVuSans-70" x="1617.244141"/>
      <use xlink:href="#DejaVuSans-6f" x="1680.720703"/>
      <use xlink:href="#DejaVuSans-73" x="1741.902344"/>
      <use xlink:href="#DejaVuSans-61" x="1794.001953"/>
      <use xlink:href="#DejaVuSans-73" x="1855.28125"/>
      <use xlink:href="#DejaVuSans-65" x="1907.380859"/>
      <use xlink:href="#DejaVuSans-5f" x="1968.904297"/>
      <use xlink:href="#DejaVuSans-73" x="2018.904297"/>
      <use xlink:href="#DejaVuSans-65" x="2071.003906"/>
      <use xlink:href="#DejaVuSans-71" x="2132.527344"/>
      <use xlink:href="#DejaVuSans-75" x="2196.003906"/>
      <use xlink:href="#DejaVuSans-65" x="2259.382812"/>
      <use xlink:href="#DejaVuSans-6e" x="2320.90625"/>
      <use xlink:href="#DejaVuSans-63" x="2384.285156"/>
      <use xlink:href="#DejaVuSans-65" x="2439.265625"/>
     </g>
    </g>
    <g id="line2d_21">
     <path d="M 230.526562 315.455394 
L 238.526562 315.455394 
L 246.526562 315.455394 
" style="fill: none; stroke: #f7a35c; stroke-linecap: square"/>
    </g>
    <g id="text_24">
     <!-- SRR12574847_1 - nextera_transposase_sequence -->
     <g transform="translate(252.926562 318.255394) scale(0.08 -0.08)">
      <use xlink:href="#DejaVuSans-53"/>
      <use xlink:href="#DejaVuSans-52" x="63.476562"/>
      <use xlink:href="#DejaVuSans-52" x="132.958984"/>
      <use xlink:href="#DejaVuSans-31" x="202.441406"/>
      <use xlink:href="#DejaVuSans-32" x="266.064453"/>
      <use xlink:href="#DejaVuSans-35" x="329.6875"/>
      <use xlink:href="#DejaVuSans-37" x="393.310547"/>
      <use xlink:href="#DejaVuSans-34" x="456.933594"/>
      <use xlink:href="#DejaVuSans-38" x="520.556641"/>
      <use xlink:href="#DejaVuSans-34" x="584.179688"/>
      <use xlink:href="#DejaVuSans-37" x="647.802734"/>
      <use xlink:href="#DejaVuSans-5f" x="711.425781"/>
      <use xlink:href="#DejaVuSans-31" x="761.425781"/>
      <use xlink:href="#DejaVuSans-20" x="825.048828"/>
      <use xlink:href="#DejaVuSans-2d" x="856.835938"/>
      <use xlink:href="#DejaVuSans-20" x="892.919922"/>
      <use xlink:href="#DejaVuSans-6e" x="924.707031"/>
      <use xlink:href="#DejaVuSans-65" x="988.085938"/>
      <use xlink:href="#DejaVuSans-78" x="1047.859375"/>
      <use xlink:href="#DejaVuSans-74" x="1107.039062"/>
      <use xlink:href="#DejaVuSans-65" x="1146.248047"/>
      <use xlink:href="#DejaVuSans-72" x="1207.771484"/>
      <use xlink:href="#DejaVuSans-61" x="1248.884766"/>
      <use xlink:href="#DejaVuSans-5f" x="1310.164062"/>
      <use xlink:href="#DejaVuSans-74" x="1360.164062"/>
      <use xlink:href="#DejaVuSans-72" x="1399.373047"/>
      <use xlink:href="#DejaVuSans-61" x="1440.486328"/>
      <use xlink:href="#DejaVuSans-6e" x="1501.765625"/>
      <use xlink:href="#DejaVuSans-73" x="1565.144531"/>
      <use xlink:href="#DejaVuSans-70" x="1617.244141"/>
      <use xlink:href="#DejaVuSans-6f" x="1680.720703"/>
      <use xlink:href="#DejaVuSans-73" x="1741.902344"/>
      <use xlink:href="#DejaVuSans-61" x="1794.001953"/>
      <use xlink:href="#DejaVuSans-73" x="1855.28125"/>
      <use xlink:href="#DejaVuSans-65" x="1907.380859"/>
      <use xlink:href="#DejaVuSans-5f" x="1968.904297"/>
      <use xlink:href="#DejaVuSans-73" x="2018.904297"/>
      <use xlink:href="#DejaVuSans-65" x="2071.003906"/>
      <use xlink:href="#DejaVuSans-71" x="2132.527344"/>
      <use xlink:href="#DejaVuSans-75" x="2196.003906"/>
      <use xlink:href="#DejaVuSans-65" x="2259.382812"/>
      <use xlink:href="#DejaVuSans-6e" x="2320.90625"/>
      <use xlink:href="#DejaVuSans-63" x="2384.285156"/>
      <use xlink:href="#DejaVuSans-65" x="2439.265625"/>
     </g>
    </g>
    <g id="line2d_22">
     <path d="M 408.1625 303.490394 
L 416.1625 303.490394 
L 424.1625 303.490394 
" style="fill: none; stroke: #8085e9; stroke-linecap: square"/>
    </g>
    <g id="text_25">
     <!-- SRR12574847_2 - nextera_transposase_sequence -->
     <g transform="translate(430.5625 306.290394) scale(0.08 -0.08)">
      <use xlink:href="#DejaVuSans-53"/>
      <use xlink:href="#DejaVuSans-52" x="63.476562"/>
      <use xlink:href="#DejaVuSans-52" x="132.958984"/>
      <use xlink:href="#DejaVuSans-31" x="202.441406"/>
      <use xlink:href="#DejaVuSans-32" x="266.064453"/>
      <use xlink:href="#DejaVuSans-35" x="329.6875"/>
      <use xlink:href="#DejaVuSans-37" x="393.310547"/>
      <use xlink:href="#DejaVuSans-34" x="456.933594"/>
      <use xlink:href="#DejaVuSans-38" x="520.556641"/>
      <use xlink:href="#DejaVuSans-34" x="584.179688"/>
      <use xlink:href="#DejaVuSans-37" x="647.802734"/>
      <use xlink:href="#DejaVuSans-5f" x="711.425781"/>
      <use xlink:href="#DejaVuSans-32" x="761.425781"/>
      <use xlink:href="#DejaVuSans-20" x="825.048828"/>
      <use xlink:href="#DejaVuSans-2d" x="856.835938"/>
      <use xlink:href="#DejaVuSans-20" x="892.919922"/>
      <use xlink:href="#DejaVuSans-6e" x="924.707031"/>
      <use xlink:href="#DejaVuSans-65" x="988.085938"/>
      <use xlink:href="#DejaVuSans-78" x="1047.859375"/>
      <use xlink:href="#DejaVuSans-74" x="1107.039062"/>
      <use xlink:href="#DejaVuSans-65" x="1146.248047"/>
      <use xlink:href="#DejaVuSans-72" x="1207.771484"/>
      <use xlink:href="#DejaVuSans-61" x="1248.884766"/>
      <use xlink:href="#DejaVuSans-5f" x="1310.164062"/>
      <use xlink:href="#DejaVuSans-74" x="1360.164062"/>
      <use xlink:href="#DejaVuSans-72" x="1399.373047"/>
      <use xlink:href="#DejaVuSans-61" x="1440.486328"/>
      <use xlink:href="#DejaVuSans-6e" x="1501.765625"/>
      <use xlink:href="#DejaVuSans-73" x="1565.144531"/>
      <use xlink:href="#DejaVuSans-70" x="1617.244141"/>
      <use xlink:href="#DejaVuSans-6f" x="1680.720703"/>
      <use xlink:href="#DejaVuSans-73" x="1741.902344"/>
      <use xlink:href="#DejaVuSans-61" x="1794.001953"/>
      <use xlink:href="#DejaVuSans-73" x="1855.28125"/>
      <use xlink:href="#DejaVuSans-65" x="1907.380859"/>
      <use xlink:href="#DejaVuSans-5f" x="1968.904297"/>
      <use xlink:href="#DejaVuSans-73" x="2018.904297"/>
      <use xlink:href="#DejaVuSans-65" x="2071.003906"/>
      <use xlink:href="#DejaVuSans-71" x="2132.527344"/>
      <use xlink:href="#DejaVuSans-75" x="2196.003906"/>
      <use xlink:href="#DejaVuSans-65" x="2259.382812"/>
      <use xlink:href="#DejaVuSans-6e" x="2320.90625"/>
      <use xlink:href="#DejaVuSans-63" x="2384.285156"/>
      <use xlink:href="#DejaVuSans-65" x="2439.265625"/>
     </g>
    </g>
    <g id="line2d_23">
     <path d="M 585.798438 303.490394 
L 593.798438 303.490394 
L 601.798438 303.490394 
" style="fill: none; stroke: #f15c80; stroke-linecap: square"/>
    </g>
    <g id="text_26">
     <!-- SRR12574848_1 - nextera_transposase_sequence -->
     <g transform="translate(608.198438 306.290394) scale(0.08 -0.08)">
      <use xlink:href="#DejaVuSans-53"/>
      <use xlink:href="#DejaVuSans-52" x="63.476562"/>
      <use xlink:href="#DejaVuSans-52" x="132.958984"/>
      <use xlink:href="#DejaVuSans-31" x="202.441406"/>
      <use xlink:href="#DejaVuSans-32" x="266.064453"/>
      <use xlink:href="#DejaVuSans-35" x="329.6875"/>
      <use xlink:href="#DejaVuSans-37" x="393.310547"/>
      <use xlink:href="#DejaVuSans-34" x="456.933594"/>
      <use xlink:href="#DejaVuSans-38" x="520.556641"/>
      <use xlink:href="#DejaVuSans-34" x="584.179688"/>
      <use xlink:href="#DejaVuSans-38" x="647.802734"/>
      <use xlink:href="#DejaVuSans-5f" x="711.425781"/>
      <use xlink:href="#DejaVuSans-31" x="761.425781"/>
      <use xlink:href="#DejaVuSans-20" x="825.048828"/>
      <use xlink:href="#DejaVuSans-2d" x="856.835938"/>
      <use xlink:href="#DejaVuSans-20" x="892.919922"/>
      <use xlink:href="#DejaVuSans-6e" x="924.707031"/>
      <use xlink:href="#DejaVuSans-65" x="988.085938"/>
      <use xlink:href="#DejaVuSans-78" x="1047.859375"/>
      <use xlink:href="#DejaVuSans-74" x="1107.039062"/>
      <use xlink:href="#DejaVuSans-65" x="1146.248047"/>
      <use xlink:href="#DejaVuSans-72" x="1207.771484"/>
      <use xlink:href="#DejaVuSans-61" x="1248.884766"/>
      <use xlink:href="#DejaVuSans-5f" x="1310.164062"/>
      <use xlink:href="#DejaVuSans-74" x="1360.164062"/>
      <use xlink:href="#DejaVuSans-72" x="1399.373047"/>
      <use xlink:href="#DejaVuSans-61" x="1440.486328"/>
      <use xlink:href="#DejaVuSans-6e" x="1501.765625"/>
      <use xlink:href="#DejaVuSans-73" x="1565.144531"/>
      <use xlink:href="#DejaVuSans-70" x="1617.244141"/>
      <use xlink:href="#DejaVuSans-6f" x="1680.720703"/>
      <use xlink:href="#DejaVuSans-73" x="1741.902344"/>
      <use xlink:href="#DejaVuSans-61" x="1794.001953"/>
      <use xlink:href="#DejaVuSans-73" x="1855.28125"/>
      <use xlink:href="#DejaVuSans-65" x="1907.380859"/>
      <use xlink:href="#DejaVuSans-5f" x="1968.904297"/>
      <use xlink:href="#DejaVuSans-73" x="2018.904297"/>
      <use xlink:href="#DejaVuSans-65" x="2071.003906"/>
      <use xlink:href="#DejaVuSans-71" x="2132.527344"/>
      <use xlink:href="#DejaVuSans-75" x="2196.003906"/>
      <use xlink:href="#DejaVuSans-65" x="2259.382812"/>
      <use xlink:href="#DejaVuSans-6e" x="2320.90625"/>
      <use xlink:href="#DejaVuSans-63" x="2384.285156"/>
      <use xlink:href="#DejaVuSans-65" x="2439.265625"/>
     </g>
    </g>
    <g id="line2d_24">
     <path d="M 763.434375 303.490394 
L 771.434375 303.490394 
L 779.434375 303.490394 
" style="fill: none; stroke: #e4d354; stroke-linecap: square"/>
    </g>
    <g id="text_27">
     <!-- SRR12574848_2 - nextera_transposase_sequence -->
     <g transform="translate(785.834375 306.290394) scale(0.08 -0.08)">
      <use xlink:href="#DejaVuSans-53"/>
      <use xlink:href="#DejaVuSans-52" x="63.476562"/>
      <use xlink:href="#DejaVuSans-52" x="132.958984"/>
      <use xlink:href="#DejaVuSans-31" x="202.441406"/>
      <use xlink:href="#DejaVuSans-32" x="266.064453"/>
      <use xlink:href="#DejaVuSans-35" x="329.6875"/>
      <use xlink:href="#DejaVuSans-37" x="393.310547"/>
      <use xlink:href="#DejaVuSans-34" x="456.933594"/>
      <use xlink:href="#DejaVuSans-38" x="520.556641"/>
      <use xlink:href="#DejaVuSans-34" x="584.179688"/>
      <use xlink:href="#DejaVuSans-38" x="647.802734"/>
      <use xlink:href="#DejaVuSans-5f" x="711.425781"/>
      <use xlink:href="#DejaVuSans-32" x="761.425781"/>
      <use xlink:href="#DejaVuSans-20" x="825.048828"/>
      <use xlink:href="#DejaVuSans-2d" x="856.835938"/>
      <use xlink:href="#DejaVuSans-20" x="892.919922"/>
      <use xlink:href="#DejaVuSans-6e" x="924.707031"/>
      <use xlink:href="#DejaVuSans-65" x="988.085938"/>
      <use xlink:href="#DejaVuSans-78" x="1047.859375"/>
      <use xlink:href="#DejaVuSans-74" x="1107.039062"/>
      <use xlink:href="#DejaVuSans-65" x="1146.248047"/>
      <use xlink:href="#DejaVuSans-72" x="1207.771484"/>
      <use xlink:href="#DejaVuSans-61" x="1248.884766"/>
      <use xlink:href="#DejaVuSans-5f" x="1310.164062"/>
      <use xlink:href="#DejaVuSans-74" x="1360.164062"/>
      <use xlink:href="#DejaVuSans-72" x="1399.373047"/>
      <use xlink:href="#DejaVuSans-61" x="1440.486328"/>
      <use xlink:href="#DejaVuSans-6e" x="1501.765625"/>
      <use xlink:href="#DejaVuSans-73" x="1565.144531"/>
      <use xlink:href="#DejaVuSans-70" x="1617.244141"/>
      <use xlink:href="#DejaVuSans-6f" x="1680.720703"/>
      <use xlink:href="#DejaVuSans-73" x="1741.902344"/>
      <use xlink:href="#DejaVuSans-61" x="1794.001953"/>
      <use xlink:href="#DejaVuSans-73" x="1855.28125"/>
      <use xlink:href="#DejaVuSans-65" x="1907.380859"/>
      <use xlink:href="#DejaVuSans-5f" x="1968.904297"/>
      <use xlink:href="#DejaVuSans-73" x="2018.904297"/>
      <use xlink:href="#DejaVuSans-65" x="2071.003906"/>
      <use xlink:href="#DejaVuSans-71" x="2132.527344"/>
      <use xlink:href="#DejaVuSans-75" x="2196.003906"/>
      <use xlink:href="#DejaVuSans-65" x="2259.382812"/>
      <use xlink:href="#DejaVuSans-6e" x="2320.90625"/>
      <use xlink:href="#DejaVuSans-63" x="2384.285156"/>
      <use xlink:href="#DejaVuSans-65" x="2439.265625"/>
     </g>
    </g>
   </g>
  </g>
 </g>
 <defs>
  <clipPath id="pdf7cef792d">
   <rect x="45.690625" y="31.48286" width="947.41" height="242.5072"/>
  </clipPath>
 </defs>
</svg>
